<svg width="512" height="512" viewBox="0 0 512 512" xmlns="http://www.w3.org/2000/svg">
  <!-- 方眼紙の地 -->
  <rect width="512" height="512" fill="#f4f3ee"/>
  <defs>
    <pattern id="dots" width="44" height="44" patternUnits="userSpaceOnUse" x="22" y="22">
      <circle cx="22" cy="22" r="2.6" fill="#dedbd1"/>
    </pattern>
    <filter id="sh" x="-20%" y="-20%" width="140%" height="140%">
      <feDropShadow dx="0" dy="5" stdDeviation="9" flood-color="#33312c" flood-opacity="0.13"/>
    </filter>
  </defs>
  <rect width="512" height="512" fill="url(#dots)"/>
  <!-- 白い紙のカード -->
  <g transform="rotate(-2 256 262)">
    <rect x="80" y="86" width="352" height="352" rx="10" fill="#fffefa" stroke="#dcd9cf" stroke-width="2" filter="url(#sh)"/>
    <!-- W (Bradley Hand Bold アウトライン、ロゴと同じ字形) -->
    <g transform="translate(256,278) scale(0.30) translate(-513.5,245)">
      <path d="M988 -453Q988 -443 981 -432Q975 -417 975 -408Q975 -407 954 -363L943 -340L934 -324V-319L891 -266L883 -245L862 -222L847 -189L832 -184L827 -176Q819 -172 815 -162L806 -141L795 -132L791 -123L766 -92L760 -74L747 -59V-45L738 -30L745 4Q739 23 711 31Q703 35 691 35L665 24L650 -17L626 -54L625 -78L608 -92L596 -118Q589 -135 577 -157Q576 -170 566 -181L555 -197L552 -214L542 -221L534 -263L515 -299L517 -305Q514 -311 509 -318L506 -330Q497 -321 471 -296Q467 -281 442 -271L443 -275L432 -266Q429 -265 425 -264L413 -252Q406 -242 390 -230L369 -205L343 -166L325 -153Q323 -151 317 -141Q314 -128 302 -118L304 -107L296 -102L291 -87L285 -80L269 -50L278 -42L275 -24L278 -19Q276 -18 271 -14V-9Q271 22 238 22Q224 22 210 10L181 -30L175 -43L146 -90L135 -129L116 -164L113 -185L102 -206L91 -245V-256L64 -335L66 -342L63 -345L54 -371V-390L50 -425L39 -438L54 -476V-478Q62 -508 85 -508Q92 -508 111 -502Q136 -480 136 -448V-444L140 -439L133 -419V-408L144 -331L140 -325L146 -322L155 -305L166 -244L171 -233L178 -201L188 -197V-177L195 -164L196 -152L200 -150L206 -125L210 -124L214 -117Q218 -105 220 -104V-105L229 -126L238 -137L246 -154L253 -162Q254 -165 262 -181L276 -190L279 -205L303 -227L311 -247L326 -252L327 -255L329 -259Q336 -274 346 -276L361 -286L368 -294L371 -304Q393 -311 400 -335L419 -337L427 -363H438L446 -379L460 -380V-394L473 -410L478 -438Q485 -443 498 -452L499 -446L513 -465H538L556 -447L572 -440L575 -415L573 -390L575 -366L601 -306L599 -294L606 -282L609 -270Q619 -256 630 -207L643 -184L645 -171L655 -162L674 -119Q675 -116 683 -105L690 -109Q696 -121 703 -128L715 -134L719 -143L723 -159L744 -182Q741 -182 741 -183Q744 -186 756 -190L766 -204L775 -219L801 -245L823 -281L838 -301L850 -326L866 -343L878 -364L889 -390L883 -398L895 -421Q897 -426 901 -434V-442Q895 -457 895 -470V-476L900 -484L909 -495L912 -508Q924 -525 941 -525Q955 -525 968 -512L988 -492L986 -463Q988 -460 988 -453ZZ" fill="#33312c"/>
    </g>
  </g>
  <!-- マスキングテープ（黄） -->
  <rect x="181" y="64" width="150" height="42" transform="rotate(-3 256 85)" fill="#f4e28a" opacity="0.88"/>
</svg>
